<svg xmlns="http://www.w3.org/2000/svg" xmlns:xlink="http://www.w3.org/1999/xlink" viewBox="0,0,256,256" width="32px" height="32px"><g fill="#ffffff" fill-rule="nonzero" stroke="none" stroke-width="1" stroke-linecap="butt" stroke-linejoin="miter" stroke-miterlimit="10" stroke-dasharray="" stroke-dashoffset="0" font-family="none" font-weight="none" font-size="none" text-anchor="none" style="mix-blend-mode: normal"><g transform="scale(8,8)"><path d="M20.96875,3.91602c-1.18994,0.00462 -2.443,0.32972 -3.67187,1.08984c-0.33259,0.20584 -0.66109,0.42072 -0.98633,0.63867c-0.00045,0.0003 -0.0015,-0.0003 -0.00195,0c-0.10999,0.04753 -0.17888,0.15838 -0.17278,0.27805c0.00609,0.11966 0.08588,0.22295 0.20013,0.25906c0.00543,0.00372 0.00799,0.01255 0.01367,0.01563c4.032,2.181 7.30861,5.47263 9.47461,9.51563c0.04672,0.1025 0.14908,0.16819 0.26172,0.16797c0.11664,-0.00134 0.22086,-0.07314 0.26367,-0.18164c0.00065,-0.00065 0.00131,-0.0013 0.00195,-0.00195c0.2201,-0.32716 0.4355,-0.6576 0.64258,-0.99219c2.027,-3.279 0.95323,-6.72645 -1.00977,-8.68945c-1.22625,-1.22687 -3.03239,-2.1073 -5.01562,-2.09961zM14.05859,7.44922c-0.18675,0.0215 -0.36853,0.09384 -0.51953,0.21484c-0.977,0.783 -1.91559,1.61323 -2.80859,2.49023c-4.397,4.322 -6.83736,10.38844 -6.69336,16.64844c0.019,0.635 0.52906,1.14516 1.16406,1.16016c0.176,0.004 0.34944,0.00586 0.52344,0.00586c6.069,0 11.91909,-2.42617 16.12109,-6.70117c0.874,-0.89 1.70242,-1.82583 2.48242,-2.79883c0.243,-0.3 0.29205,-0.72331 0.12305,-1.07031c-2.096,-4.306 -5.53884,-7.75247 -9.83984,-9.85547c-0.174,-0.085 -0.36598,-0.11525 -0.55273,-0.09375zM7.78125,18.79297c0.07423,-0.01353 0.15152,-0.01355 0.22852,0.00195c2.608,0.529 4.66631,2.58731 5.19531,5.19531c0.063,0.307 -0.12688,0.61956 -0.42187,0.72656c-1.929,0.697 -3.96297,1.12156 -6.04297,1.22656c-0.38,0.019 -0.70259,-0.30359 -0.68359,-0.68359c0.104,-2.08 0.52956,-4.11497 1.22656,-6.04297c0.08025,-0.222 0.27534,-0.38323 0.49805,-0.42383z"></path></g></g></svg>